{
    "asset" : {
        "generator" : "Khronos glTF Blender I/O v3.3.32",
        "version" : "2.0"
    },
    "scene" : 0,
    "scenes" : [
        {
            "name" : "Scene",
            "nodes" : [
                0
            ]
        }
    ],
    "nodes" : [
        {
            "mesh" : 0,
            "name" : "Line354",
            "rotation" : [
                -0.005856599658727646,
                0,
                0,
                0.9999828338623047
            ],
            "scale" : [
                10,
                10,
                10
            ],
            "translation" : [
                0,
                77.92694091796875,
                0.018849115818738937
            ]
        }
    ],
    "materials" : [
        {
            "doubleSided" : true,
            "name" : "Material.005",
            "pbrMetallicRoughness" : {
                "baseColorFactor" : [
                    0.8549917340278625,
                    0.8879222869873047,
                    0.9559733867645264,
                    1
                ],
                "metallicFactor" : 0,
                "roughnessFactor" : 0.5
            }
        },
        {
            "doubleSided" : true,
            "name" : "Material.004",
            "pbrMetallicRoughness" : {
                "baseColorFactor" : [
                    0.03310471028089523,
                    0.04373499006032944,
                    0.06847818195819855,
                    1
                ],
                "metallicFactor" : 0,
                "roughnessFactor" : 0.5
            }
        }
    ],
    "meshes" : [
        {
            "name" : "Line354.001",
            "primitives" : [
                {
                    "attributes" : {
                        "POSITION" : 0,
                        "NORMAL" : 1,
                        "TEXCOORD_0" : 2
                    },
                    "indices" : 3,
                    "material" : 0
                },
                {
                    "attributes" : {
                        "POSITION" : 4,
                        "NORMAL" : 5,
                        "TEXCOORD_0" : 6
                    },
                    "indices" : 7,
                    "material" : 1
                }
            ]
        }
    ],
    "accessors" : [
        {
            "bufferView" : 0,
            "componentType" : 5126,
            "count" : 43080,
            "max" : [
                8.822090148925781,
                6.8698506355285645,
                9.602914810180664
            ],
            "min" : [
                -8.7238130569458,
                -8.514054298400879,
                -9.478495597839355
            ],
            "type" : "VEC3"
        },
        {
            "bufferView" : 1,
            "componentType" : 5126,
            "count" : 43080,
            "type" : "VEC3"
        },
        {
            "bufferView" : 2,
            "componentType" : 5126,
            "count" : 43080,
            "type" : "VEC2"
        },
        {
            "bufferView" : 3,
            "componentType" : 5123,
            "count" : 99564,
            "type" : "SCALAR"
        },
        {
            "bufferView" : 4,
            "componentType" : 5126,
            "count" : 17233,
            "max" : [
                8.75208568572998,
                8.514053344726562,
                9.701193809509277
            ],
            "min" : [
                -8.822091102600098,
                -8.045265197753906,
                -9.701180458068848
            ],
            "type" : "VEC3"
        },
        {
            "bufferView" : 5,
            "componentType" : 5126,
            "count" : 17233,
            "type" : "VEC3"
        },
        {
            "bufferView" : 6,
            "componentType" : 5126,
            "count" : 17233,
            "type" : "VEC2"
        },
        {
            "bufferView" : 7,
            "componentType" : 5123,
            "count" : 95292,
            "type" : "SCALAR"
        }
    ],
    "bufferViews" : [
        {
            "buffer" : 0,
            "byteLength" : 516960,
            "byteOffset" : 0,
            "target" : 34962
        },
        {
            "buffer" : 0,
            "byteLength" : 516960,
            "byteOffset" : 516960,
            "target" : 34962
        },
        {
            "buffer" : 0,
            "byteLength" : 344640,
            "byteOffset" : 1033920,
            "target" : 34962
        },
        {
            "buffer" : 0,
            "byteLength" : 199128,
            "byteOffset" : 1378560,
            "target" : 34963
        },
        {
            "buffer" : 0,
            "byteLength" : 206796,
            "byteOffset" : 1577688,
            "target" : 34962
        },
        {
            "buffer" : 0,
            "byteLength" : 206796,
            "byteOffset" : 1784484,
            "target" : 34962
        },
        {
            "buffer" : 0,
            "byteLength" : 137864,
            "byteOffset" : 1991280,
            "target" : 34962
        },
        {
            "buffer" : 0,
            "byteLength" : 190584,
            "byteOffset" : 2129144,
            "target" : 34963
        }
    ],
    "buffers" : [
        {
            "byteLength" : 2319728,
            "uri" : "data:application/octet-stream;base64,"
        }
    ]
}
